      <svg
        width="512"
        height="512"
        viewBox="0 0 512 512"
        fill="none"
        xmlns="http://www.w3.org/2000/svg"
      >
        <rect width="512" height="512" fill="#1e1e1b" />
        <path
          d="M186.513 436.006L190.668 353.906C190.668 353.906 186.513 316.961 165.735 345.696C153.269 366.221 103.404 362.116 99.2482 312.856C96.3394 280.016 111.299 259.491 136.647 259.491C165.735 259.491 174.046 296.436 190.668 275.911C198.979 267.701 190.668 160.97 190.668 160.97C190.668 160.97 277.933 169.18 290.399 165.075C311.176 160.97 307.021 136.34 290.399 128.13C265.466 111.71 273.777 62.45 323.643 58.3449C361.042 54.2399 381.819 78.87 381.819 91.185C381.819 128.13 361.042 119.92 361.042 144.55C361.042 160.97 373.508 160.97 394.285 160.97C406.752 160.97 464.928 152.76 464.928 152.76C464.928 152.76 477.394 226.65 477.394 243.07C477.394 259.491 481.55 275.911 464.928 280.016C448.306 284.121 427.529 255.386 410.907 275.911C394.285 296.436 390.13 345.696 431.684 345.696C448.306 345.696 456.617 329.276 469.083 333.381C485.705 337.486 481.55 362.116 477.394 390.851C473.239 420.407 473.239 427.796 473.239 427.796L352.731 440.111C352.731 440.111 336.109 440.111 336.109 423.691C336.109 407.271 356.886 407.271 356.886 386.746C356.886 366.221 344.42 353.906 319.487 353.906C294.554 353.906 257.155 382.641 286.244 415.481C315.332 448.321 186.513 436.006 186.513 436.006Z"
          fill="url(#paint0_linear_215_35)"
        />
        <circle cx="91.5" cy="190.5" r="7.5" fill="#10B981" />
        <circle cx="124.5" cy="162.5" r="7.5" fill="#10B981" />
        <circle
          cx="205"
          cy="174"
          r="27.5"
          fill="#10B981"
          stroke="#1e1e1b"
          stroke-width="15"
        />
        <circle
          cx="290"
          cy="169"
          r="27.5"
          fill="#10B981"
          stroke="#1e1e1b"
          stroke-width="15"
        />
        <circle
          cx="220"
          cy="270"
          r="40"
          fill="#10B981"
          stroke="#1e1e1b"
          stroke-width="20"
        />
        <circle cx="74.5" cy="248.5" r="7.5" fill="#34D399" />
        <circle cx="67" cy="211" r="5" fill="#10B981" />
        <circle cx="45" cy="206" r="5" fill="#10B981" />
        <circle cx="50" cy="169" r="5" fill="#34D399" />
        <circle cx="75.5" cy="280.5" r="7.5" fill="#10B981" />
        <circle
          cx="121"
          cy="211"
          r="13.5"
          fill="#10B981"
          stroke="#1e1e1b"
          stroke-width="5"
        />
        <circle
          cx="163"
          cy="143"
          r="13.5"
          fill="#34D399"
          stroke="#1e1e1b"
          stroke-width="5"
        />
        <circle
          cx="157"
          cy="380"
          r="15"
          fill="#10B981"
          stroke="#1e1e1b"
          stroke-width="10"
        />
        <circle cx="162" cy="226" r="15" fill="#10B981" />
        <circle cx="227.5" cy="126.5" r="12.5" fill="#10B981" />
        <circle
          cx="110"
          cy="308"
          r="27.5"
          fill="#10B981"
          stroke="#1e1e1b"
          stroke-width="15"
        />
        <circle cx="85" cy="343" r="10" fill="#34D399" />
        <circle
          cx="132"
          cy="266"
          r="20"
          fill="#34D399"
          stroke="#1e1e1b"
          stroke-width="10"
        />
        <defs>
          <linearGradient
            id="paint0_linear_215_35"
            x1="98.8889"
            y1="249"
            x2="481.111"
            y2="249"
            gradientUnits="userSpaceOnUse"
          >
            <stop stop-color="#26FBAD" />
            <stop offset="1" stop-color="#30916E" />
          </linearGradient>
        </defs>
      </svg>