<svg width="85" viewBox="0 0 57 15" fill="none" xmlns="http://www.w3.org/2000/svg">
    <path
        d="M6.99039 1.00006C6.68778 0.998848 6.38555 1.01656 6.0866 1.05215L6.00813 1.05891C6.05949 1.58282 5.97367 1.95823 5.79895 2.15046C5.62424 2.3427 5.33152 2.43797 4.74188 2.3245L4.19475 2.21916L4.44147 2.68972C4.60965 3.01056 4.5262 3.35334 4.28277 3.5529C4.03933 3.75245 3.61503 3.84425 2.97111 3.51321L2.46582 3.2534L2.5707 3.7854C2.66809 4.27928 2.51756 4.51172 2.27327 4.66518C2.02899 4.8187 1.64 4.86383 1.30264 4.79513L1.29854 4.81284L1.23143 4.77131C0.985007 5.5983 0.922318 6.56736 1.10693 7.68872L1.55152 10.2776L3.60976 9.91349L3.71107 10.4186L3.26063 10.4983L4.56453 14H5.30795L5.07927 12.2979L5.62195 12.2336L5.85924 14H6.72631V12.2034H7.27356V13.9999H8.14054L8.37786 12.2335L8.92053 12.2979L8.69186 13.9999H9.43809L10.7367 10.5125L10.2058 10.4185L10.3071 9.91346L12.3621 10.277L12.8961 7.6858C13.266 5.43386 12.6153 3.78851 11.4698 2.68139C10.324 1.57394 8.66041 1.00696 6.99097 1.00003H6.99039V1.00006ZM6.56553 1.55395C7.89983 2.36487 7.72813 4.24309 5.99202 3.50202C7.01015 5.37058 5.27255 6.17378 3.94716 5.02012C4.06118 6.0542 2.77323 6.34085 1.91758 5.32419C2.15071 5.29212 2.37736 5.21817 2.57749 5.0924C2.88678 4.89807 3.10331 4.56354 3.13674 4.13575C3.74729 4.32463 4.28994 4.22925 4.64262 3.94012C4.96347 3.67704 5.11532 3.27725 5.06332 2.87759C5.55853 2.89755 5.95835 2.76675 6.2152 2.48414C6.43843 2.23847 6.541 1.91947 6.56553 1.55397V1.55395ZM4.75309 6.17372C5.71594 6.17372 6.49643 6.90681 6.49643 7.81119C6.49643 8.71559 5.71594 9.44873 4.75309 9.44873C3.79028 9.44873 3.00967 8.71561 3.00967 7.81121C3.00967 6.90678 3.79028 6.17375 4.75309 6.17375V6.17372ZM9.36597 6.17372C10.3288 6.17372 11.1093 6.90681 11.1093 7.81119C11.1093 8.71559 10.3288 9.44873 9.36597 9.44873C8.40315 9.44873 7.62255 8.71561 7.62255 7.81121C7.62255 6.90678 8.40315 6.17375 9.36597 6.17375V6.17372ZM7.0038 8.36672L8.17316 11.1609L7.67452 11.3548L7.00386 10.3791L6.3332 11.3548L5.81728 11.161L7.0038 8.3667V8.36672Z"
        fill="#34D399" />
    <g class="fill-black dark:fill-white">
        <path
            d="M22.5456 6.09375C22.4859 5.88637 22.4021 5.70313 22.2941 5.54404C22.1862 5.38211 22.0541 5.24574 21.8978 5.13495C21.7444 5.02131 21.5683 4.93466 21.3694 4.875C21.1734 4.81534 20.9561 4.78551 20.7174 4.78551C20.2714 4.78551 19.8794 4.89631 19.5413 5.1179C19.2061 5.33949 18.9447 5.66193 18.7572 6.08523C18.5697 6.50568 18.476 7.01989 18.476 7.62784C18.476 8.2358 18.5683 8.75284 18.753 9.17898C18.9376 9.60512 19.199 9.9304 19.537 10.1548C19.8751 10.3764 20.2743 10.4872 20.7345 10.4872C21.1521 10.4872 21.5086 10.4134 21.8041 10.2656C22.1024 10.1151 22.3297 9.90341 22.4859 9.63068C22.645 9.35796 22.7245 9.03551 22.7245 8.66335L23.0995 8.71875H20.8495V7.32955H24.5015V8.42898C24.5015 9.19603 24.3396 9.85512 24.0157 10.4063C23.6919 10.9545 23.2458 11.3778 22.6777 11.6761C22.1095 11.9716 21.4589 12.1193 20.726 12.1193C19.9078 12.1193 19.189 11.9389 18.5697 11.5781C17.9504 11.2145 17.4674 10.6989 17.1208 10.0313C16.7771 9.3608 16.6052 8.56534 16.6052 7.64489C16.6052 6.9375 16.7075 6.30682 16.912 5.75284C17.1194 5.19603 17.4092 4.72443 17.7814 4.33807C18.1535 3.95171 18.5868 3.65767 19.0811 3.45597C19.5754 3.25426 20.1109 3.15341 20.6876 3.15341C21.1819 3.15341 21.6422 3.22586 22.0683 3.37074C22.4944 3.51279 22.8723 3.71449 23.2018 3.97586C23.5342 4.23722 23.8055 4.5483 24.0157 4.90909C24.226 5.26705 24.3609 5.66193 24.4206 6.09375H22.5456Z" />
        <path
            d="M27.7199 12.1236C27.3023 12.1236 26.9302 12.0511 26.6034 11.9063C26.2767 11.7585 26.0182 11.5412 25.8279 11.2543C25.6404 10.9645 25.5466 10.6037 25.5466 10.1719C25.5466 9.80824 25.6134 9.50284 25.7469 9.25568C25.8804 9.00853 26.0623 8.80966 26.2924 8.65909C26.5225 8.50853 26.7838 8.39489 27.0765 8.31818C27.3719 8.24148 27.6816 8.1875 28.0054 8.15625C28.3861 8.11648 28.6929 8.07955 28.9259 8.04546C29.1588 8.00853 29.3279 7.95455 29.433 7.88353C29.5381 7.8125 29.5907 7.70739 29.5907 7.56818V7.54262C29.5907 7.27273 29.5054 7.06392 29.335 6.9162C29.1674 6.76847 28.9287 6.69461 28.6191 6.69461C28.2924 6.69461 28.0324 6.76705 27.8392 6.91193C27.6461 7.05398 27.5182 7.23296 27.4557 7.44887L25.7767 7.3125C25.862 6.91478 26.0296 6.57103 26.2796 6.28125C26.5296 5.98864 26.852 5.76421 27.2469 5.60796C27.6446 5.44887 28.1049 5.36932 28.6276 5.36932C28.9912 5.36932 29.3392 5.41193 29.6716 5.49716C30.0069 5.58239 30.3037 5.71449 30.5623 5.89347C30.8236 6.07245 31.0296 6.30256 31.1802 6.58381C31.3307 6.86222 31.406 7.19603 31.406 7.58523V12H29.6844V11.0923H29.6333C29.5282 11.2969 29.3875 11.4773 29.2114 11.6335C29.0353 11.7869 28.8236 11.9077 28.5765 11.9957C28.3293 12.081 28.0438 12.1236 27.7199 12.1236ZM28.2398 10.8707C28.5069 10.8707 28.7427 10.8182 28.9472 10.7131C29.1517 10.6051 29.3123 10.4602 29.4287 10.2784C29.5452 10.0966 29.6034 9.89063 29.6034 9.66051V8.96591C29.5466 9.00284 29.4685 9.03693 29.3691 9.06818C29.2725 9.09659 29.1631 9.12358 29.0409 9.14915C28.9188 9.17188 28.7966 9.19318 28.6745 9.21307C28.5523 9.23012 28.4415 9.24574 28.3421 9.25995C28.129 9.2912 27.9429 9.34091 27.7838 9.40909C27.6248 9.47728 27.5012 9.56961 27.4131 9.68608C27.325 9.79972 27.281 9.94176 27.281 10.1122C27.281 10.3594 27.3705 10.5483 27.5495 10.679C27.7313 10.8068 27.9614 10.8707 28.2398 10.8707Z" />
        <path
            d="M32.8144 12V5.45455H34.5445V6.60938H34.6212C34.7576 6.22586 34.9848 5.9233 35.303 5.70171C35.6212 5.48012 36.0019 5.36932 36.4451 5.36932C36.8939 5.36932 37.276 5.48154 37.5914 5.70597C37.9067 5.92756 38.1169 6.2287 38.2221 6.60938H38.2902C38.4238 6.23438 38.6652 5.93466 39.0147 5.71023C39.3669 5.48296 39.7831 5.36932 40.2633 5.36932C40.874 5.36932 41.3698 5.56392 41.7505 5.95313C42.134 6.33949 42.3258 6.88779 42.3258 7.59801V12H40.5147V7.95597C40.5147 7.59233 40.4181 7.31961 40.2249 7.13779C40.0317 6.95597 39.7902 6.86506 39.5005 6.86506C39.1709 6.86506 38.9138 6.97017 38.7292 7.1804C38.5445 7.38779 38.4522 7.66193 38.4522 8.00284V12H36.6922V7.91762C36.6922 7.59659 36.5999 7.34091 36.4152 7.15057C36.2334 6.96023 35.9934 6.86506 35.6951 6.86506C35.4934 6.86506 35.3115 6.9162 35.1496 7.01847C34.9905 7.1179 34.8641 7.25853 34.7704 7.44034C34.6766 7.61932 34.6297 7.82955 34.6297 8.07103V12H32.8144Z" />
        <path
            d="M46.7427 12.1278C46.0694 12.1278 45.4898 11.9915 45.004 11.7188C44.5211 11.4432 44.1489 11.054 43.8875 10.5511C43.6262 10.0455 43.4955 9.44745 43.4955 8.7571C43.4955 8.08381 43.6262 7.4929 43.8875 6.98438C44.1489 6.47586 44.5168 6.07955 44.9912 5.79546C45.4685 5.51137 46.0282 5.36932 46.6702 5.36932C47.102 5.36932 47.504 5.43892 47.8762 5.57813C48.2512 5.71449 48.5779 5.92046 48.8563 6.19603C49.1375 6.47159 49.3563 6.81818 49.5125 7.2358C49.6688 7.65057 49.7469 8.13637 49.7469 8.69318V9.19176H44.2199V8.06676H48.0381C48.0381 7.8054 47.9813 7.57387 47.8677 7.37216C47.754 7.17046 47.5963 7.01279 47.3946 6.89915C47.1958 6.78267 46.9642 6.72443 46.7 6.72443C46.4245 6.72443 46.1802 6.78836 45.9671 6.9162C45.7569 7.0412 45.5921 7.21023 45.4728 7.4233C45.3534 7.63353 45.2924 7.8679 45.2895 8.12642V9.19603C45.2895 9.51989 45.3492 9.79972 45.4685 10.0355C45.5907 10.2713 45.7625 10.4531 45.9841 10.581C46.2057 10.7088 46.4685 10.7727 46.7725 10.7727C46.9742 10.7727 47.1588 10.7443 47.3265 10.6875C47.4941 10.6307 47.6375 10.5455 47.7569 10.4318C47.8762 10.3182 47.9671 10.179 48.0296 10.0142L49.7086 10.125C49.6233 10.5284 49.4486 10.8807 49.1844 11.1818C48.9231 11.4801 48.585 11.7131 48.1702 11.8807C47.7583 12.0455 47.2824 12.1278 46.7427 12.1278Z" />
        <path
            d="M56.3776 7.32103L54.7157 7.4233C54.6873 7.28125 54.6262 7.15341 54.5324 7.03978C54.4387 6.9233 54.3151 6.83097 54.1617 6.76279C54.0111 6.69176 53.8307 6.65625 53.6205 6.65625C53.3392 6.65625 53.102 6.71591 52.9088 6.83523C52.7157 6.95171 52.6191 7.10796 52.6191 7.30398C52.6191 7.46023 52.6816 7.59233 52.8066 7.70029C52.9316 7.80824 53.1461 7.89489 53.45 7.96023L54.6347 8.19887C55.2711 8.32955 55.7455 8.53978 56.058 8.82955C56.3705 9.11932 56.5267 9.5 56.5267 9.97159C56.5267 10.4006 56.4003 10.777 56.1475 11.1009C55.8975 11.4247 55.5537 11.6776 55.1162 11.8594C54.6816 12.0384 54.1802 12.1278 53.612 12.1278C52.7455 12.1278 52.0552 11.9474 51.541 11.5867C51.0296 11.223 50.7299 10.7287 50.6418 10.1037L52.4273 10.0099C52.4813 10.2742 52.612 10.4759 52.8194 10.6151C53.0267 10.7514 53.2924 10.8196 53.6162 10.8196C53.9344 10.8196 54.1901 10.7585 54.3833 10.6364C54.5793 10.5114 54.6787 10.3509 54.6816 10.1548C54.6787 9.99006 54.6091 9.85512 54.4728 9.75C54.3364 9.64205 54.1262 9.55966 53.8421 9.50284L52.7086 9.27699C52.0694 9.14915 51.5935 8.92756 51.281 8.61222C50.9713 8.29688 50.8165 7.89489 50.8165 7.40625C50.8165 6.9858 50.9302 6.62358 51.1574 6.31961C51.3875 6.01563 51.71 5.78125 52.1248 5.61648C52.5424 5.45171 53.031 5.36932 53.5907 5.36932C54.4174 5.36932 55.0679 5.54404 55.5424 5.89347C56.0196 6.2429 56.2981 6.71875 56.3776 7.32103Z" />
    </g>
</svg>